<svg width="80" height="81" viewBox="0 0 80 81" fill="none" xmlns="http://www.w3.org/2000/svg">
<rect y="0.940765" width="80" height="80" rx="40" fill="#6052CC"/>
<path d="M48.8174 63.6138C49.1238 63.7159 49.4303 63.818 49.6345 63.818C51.6774 64.4309 52.1882 64.0223 52.4946 61.9794C52.801 59.3237 54.4354 57.6893 56.7847 57.8936C59.9512 58.0979 61.4834 61.1623 59.6448 63.818C58.5212 65.4524 56.8868 66.2695 54.9461 66.3717C52.4946 66.4738 50.5538 65.3502 48.8174 63.6138Z" fill="#FF8FA2"/>
<path d="M33.3934 15.5034C29.4097 18.6699 28.3883 23.0622 27.6732 27.5566C26.9582 32.0509 26.9582 36.5453 27.1625 41.0397C27.1625 42.3676 27.5711 43.7976 27.9797 45.1255C28.6947 47.1684 30.329 48.0877 32.4741 48.0877C34.1084 48.0877 35.7427 48.1899 37.377 48.8027C38.092 49.1092 38.7049 49.4156 39.3178 49.8242C37.7856 49.2113 36.2534 49.007 34.6191 49.2113C33.6998 49.3135 32.7805 49.5177 31.8612 49.8242C30.1247 50.3349 29.614 51.5606 30.1247 53.2971C30.6354 55.1357 31.8612 56.4636 33.4955 57.4851C33.4955 57.5872 33.4955 57.5872 33.3934 57.6894C32.3719 57.2808 31.2483 56.8722 30.2269 56.3615C26.1411 54.2164 23.1789 50.9478 21.5445 46.6577C18.8888 39.7118 18.7866 32.6638 21.9531 25.718C24.0982 20.9171 27.8775 17.6485 32.7805 15.7077C32.8826 15.6056 33.0869 15.6056 33.3934 15.5034Z" fill="white"/>
<path d="M43.812 57.0765C46.5699 55.1357 47.7957 52.2757 48.715 49.3135C50.0429 44.6148 50.2472 39.814 50.145 35.0132C50.0429 31.2338 49.8386 27.4544 48.8171 23.8793C48.6128 22.96 48.3064 22.0407 47.8978 21.1214C47.0807 18.9764 45.8549 17.0356 43.9142 15.5034C44.1184 15.6056 44.3227 15.6056 44.6292 15.7077C51.0643 18.2614 55.048 22.96 56.7844 29.5995C58.4188 35.8303 58.0102 41.959 54.9458 47.7813C52.5965 52.2757 48.9193 55.34 44.2206 57.0765C44.1184 57.0765 44.0163 57.0765 43.812 57.0765Z" fill="white"/>
</svg> 